<svg viewBox="0 0 100 100" fill="none" xmlns="http://www.w3.org/2000/svg">
  <rect width="100" height="100" rx="22" fill="#0E0F12" />
  <path 
    d="
      M 22 76 
      V 40 
      C 22 23, 36 18, 50 28 
      C 64 18, 78 23, 78 40 
      V 42 
      H 85 
      C 88 42, 88 48, 85 48 
      H 78 
      V 56 
      H 85 
      C 88 56, 88 62, 85 62 
      H 78 
      V 70 
      H 85 
      C 88 70, 88 76, 85 76 
      H 78 
      V 76 
      C 78 81, 70 81, 68 76 
      V 46 
      C 68 37, 58 36, 50 43 
      C 42 36, 32 37, 32 46 
      V 76 
      C 32 81, 22 81, 22 76 
      Z
    "
    fill="#B2B8C2" 
    stroke="#FFFFFF" 
    strokeWidth="6" 
    strokeLinecap="round" 
    strokeLinejoin="round" 
  />
  <circle 
    cx="50" 
    cy="68" 
    r="8" 
    fill="#B2B8C2" 
    stroke="#FFFFFF" 
    strokeWidth="5" 
  />
</svg>
